<svg xmlns="http://www.w3.org/2000/svg" viewBox="0 0 143.38428 37.85417">
  <text style="line-height:.01%" x="12.271335" y="105.64336" fill="#1a1a1a" font-family="sans-serif" font-size="3.959764" font-weight="400" letter-spacing="0" transform="translate(-13.998535 -86.393319)" word-spacing="0">
    <tspan x="12.271335" y="105.64336"><tspan x="12.271335" y="105.64336" style="line-height:1.25;-inkscape-font-specification:Laksaman" font-family="Laksaman" font-size="25.4">mem</tspan></tspan>
  </text>
  <text style="line-height:.01%" x="56.835964" y="123.02216" fill="#1a1a1a" font-family="sans-serif" font-size="3.959764" font-weight="400" letter-spacing="0" transform="translate(-13.998535 -86.393319)" word-spacing="0">
    <tspan x="56.835964" y="123.02216"><tspan x="56.835964" y="123.02216" style="line-height:1.25;-inkscape-font-specification:Laksaman" font-family="Laksaman" font-size="25.4">o</tspan></tspan>
  </text>
  
  <g fill="#c83737" stroke-width="1.832078">
    <path fill-rule="evenodd" d="M58.854264 37.627435c.406549-13.135728.433656-19.647805 0-32.156652-.017674-.510089 1.456533 0 1.456533 0v32.156652s-1.472322.510156-1.456533 0z"/>
    <g aria-label="oo" style="line-height:.01%" font-family="sans-serif" font-weight="400" letter-spacing="0" word-spacing="0">
      <path d="M67.15813 22.760387q3.114485 0 5.218128 2.0967 2.103643 2.067979 2.103643 5.313556 0 3.274299-2.076322 5.342277-2.103643 2.067978-5.245449 2.067978-3.114485 0-5.218128-2.0967t-2.103643-5.313555q0-3.245577 2.103643-5.313556 2.103643-2.0967 5.218128-2.0967zm5.95577 7.410256q0-2.498808-1.721164-4.078513-1.721161-1.608428-4.234606-1.608428-2.513443 0-4.234606 1.579706-1.721163 1.579706-1.721163 4.107235 0 2.498807 1.721163 4.107234 1.721163 1.579706 4.234606 1.579706 2.513445 0 4.234606-1.579706Q73.1139 32.66945 73.1139 30.170643zM67.15813 5.594552q3.114485 0 5.218128 2.0967 2.103643 2.067979 2.103643 5.313556 0 3.274299-2.076322 5.342276-2.103643 2.06798-5.245449 2.06798-3.114485 0-5.218128-2.096702-2.103643-2.0967-2.103643-5.313554 0-3.245577 2.103643-5.313556 2.103643-2.0967 5.218128-2.0967zm5.95577 7.410256q0-2.498808-1.721164-4.078514-1.721161-1.608428-4.234606-1.608428-2.513443 0-4.234606 1.579706-1.721163 1.579706-1.721163 4.107236 0 2.498806 1.721163 4.107234 1.721163 1.579706 4.234606 1.579706 2.513445 0 4.234606-1.579706 1.721163-1.608428 1.721163-4.107234z"/>
    </g>
    <path d="M64.25108 17.275906c.817847.4464 1.976232.79777 2.937193.799857 2.874887.000296 5.330135-2.532797 5.330417-5.076392-.024913-1.09483-.13227-1.4417-.669365-2.147327.145648 1.929094-1.301495 4.327394-3.32354 5.51912-1.287211.756343-2.768318.669815-4.274705.904742zM64.251075 34.452718c.817846.446405 1.976237.797774 2.937198.799856 2.874882.000297 5.330125-2.53279 5.330407-5.076388-.024914-1.09483-.132271-1.441705-.669355-2.147332.145638 1.9291-1.301495 4.327398-3.323545 5.519127-1.287212.756343-2.768318.669815-4.274705.904737z"/>
    <path fill-rule="evenodd" d="M62.0961 24.734895c-.332895-2.914006-.344969-3.41453 0-6.154696.057492-.45667 1.363101-.457811 1.31451 0-.329009 3.099477-.33612 3.073828 0 6.140447.050146.457649-1.003065.338313-1.31451.014216z"/>
  </g>

  <text style="line-height:.01%" x="90.983673" y="105.1857" font-family="sans-serif" font-size="3.959764" font-weight="400" letter-spacing="0" transform="translate(-13.998535 -86.393319)" word-spacing="0"/>
  <text style="line-height:.01%" x="89.070869" y="105.69732" fill="#1a1a1a" font-family="sans-serif" font-size="3.959764" font-weight="400" letter-spacing="0" transform="translate(-13.998535 -86.393319)" word-spacing="0">
    <tspan x="89.070869" y="105.69732"><tspan x="89.070869" y="105.69732" style="line-height:1.25;-inkscape-font-specification:Laksaman" font-family="Laksaman" font-size="25.4">ool</tspan></tspan>
  </text>
  <text style="line-height:.01%" x="88.475403" y="122.66173" fill="#1a1a1a" font-family="sans-serif" font-size="3.959764" font-weight="400" letter-spacing="0" transform="translate(-13.998535 -86.393319)" word-spacing="0">
    <tspan x="88.475403" y="122.66173"><tspan x="88.475403" y="122.66173" style="line-height:1.25;-inkscape-font-specification:Laksaman" font-family="Laksaman" font-size="25.4">server</tspan></tspan>
  </text>
</svg>